PathFileType        4      (X/Y/Z)      C:\Users\cpontonn\Documents\TRAVAIL - COURS\DIGISPORT\Partage Nico\Partage Nico DIGISPORT\TP OPENSIM - eleves - work\DATA\transformed_Statique.trc         
DataRate	CameraRate	NumFrames	NumMarkers	Units	OrigDataRate	OrigDataStartFrame	OrigNumFrames
100.0	100.0	5	38	mm	100.0	77	610
Frame#	Time	LFHD			LBHD			RFHD			RBHD			C7			T10			CLAV			STRN			LSHO			LRAD			LHUM			LWRB			LWRA			LCAR			RSHO			RRAD			RHUM			RWRB			RWRA			RCAR			LFWT			LBWT			RFWT			RBWT			LKNE			LKNI			LANE			LHEE			LANI			LTAR			LTOE			RKNE			RKNI			RANE			RHEE			RANI			RTAR			RTOE			
		X1	Y1	Z1	X2	Y2	Z2	X3	Y3	Z3	X4	Y4	Z4	X5	Y5	Z5	X6	Y6	Z6	X7	Y7	Z7	X8	Y8	Z8	X9	Y9	Z9	X10	Y10	Z10	X11	Y11	Z11	X12	Y12	Z12	X13	Y13	Z13	X14	Y14	Z14	X15	Y15	Z15	X16	Y16	Z16	X17	Y17	Z17	X18	Y18	Z18	X19	Y19	Z19	X20	Y20	Z20	X21	Y21	Z21	X22	Y22	Z22	X23	Y23	Z23	X24	Y24	Z24	X25	Y25	Z25	X26	Y26	Z26	X27	Y27	Z27	X28	Y28	Z28	X29	Y29	Z29	X30	Y30	Z30	X31	Y31	Z31	X32	Y32	Z32	X33	Y33	Z33	X34	Y34	Z34	X35	Y35	Z35	X36	Y36	Z36	X37	Y37	Z37	X38	Y38	Z38	
77	0.76	89.32302999999995	1795.14502	410.4608200000001	96.86758999999998	1744.12073	270.8816200000001	-47.07645000000005	1796.54395	406.2818000000001	-29.144390000000033	1735.83569	255.8966700000001	15.256799999999973	1614.46106	223.7761700000001	14.050519999999981	1386.39966	155.19392000000008	16.697349999999958	1538.66687	351.01321000000013	15.249609999999953	1363.87109	397.98773000000006	217.64269999999996	1578.7406	275.1747400000001	276.7482299999999	1202.7572	259.7813400000001	215.92527999999996	1208.53882	231.2260700000001	290.88805999999994	965.51123	356.0984800000001	217.55802999999995	967.09943	382.52780000000007	271.58523999999994	894.70099	414.07886000000013	-175.20894000000004	1574.90503	280.88690000000014	-244.56729000000004	1200.10437	257.68005	-191.43246000000002	1202.62659	225.66579000000004	-269.33414000000005	958.40051	354.05368	-206.32375000000005	960.23816	390.92197000000004	-263.76682000000005	888.11578	403.49408	113.97932999999995	1069.33911	423.93658000000005	42.99209999999997	1110.19153	232.38591000000005	-76.81783000000006	1070.01465	433.31543000000005	-38.14072000000003	1109.66223	235.78485000000006	186.12038999999996	563.94769	245.35315000000006	78.27047999999998	521.23999	261.7560700000001	195.05880999999997	107.67518999999999	232.80814000000004	137.03219999999996	27.11503999999999	158.46030000000002	108.39621999999997	112.23392999999999	250.36586	229.71337999999994	44.56808999999998	391.60208	148.98382999999995	47.07820999999997	450.74811	-170.95807000000002	558.79938	282.45712000000003	-81.55247000000003	509.9292	277.0057100000001	-185.20914000000002	98.49092999999999	236.05668999999997	-121.61010000000002	30.39636999999999	159.92696999999998	-93.90398000000003	119.13927999999999	251.76196	-220.62007000000006	41.31310999999998	391.64426	-137.21873000000005	43.608329999999974	452.46988	
78	0.77	89.26360999999994	1795.0686	410.5680200000001	96.94476999999998	1744.15027	270.9711600000001	-47.14281000000005	1796.51953	406.2536300000001	-29.070660000000032	1735.8844	255.87852000000012	15.285039999999974	1614.45508	223.77835000000007	14.05789999999998	1386.422	155.2236200000001	16.663189999999958	1538.68372	351.0252400000001	15.202319999999952	1363.88989	397.99341000000004	217.62830999999997	1578.73022	275.2550000000001	276.7397199999999	1202.75842	259.9094800000001	215.93590999999998	1208.53564	231.34253000000012	290.86098999999996	965.50537	356.2044400000001	217.50318999999993	967.08295	382.5853000000001	271.52566999999993	894.67957	414.1559400000001	-175.21490000000003	1574.95044	280.8664200000001	-244.56572000000003	1200.14551	257.68759	-191.44853000000003	1202.68372	225.64993000000007	-269.35834000000006	958.42682	353.98355	-206.34692000000007	960.28564	390.8570900000001	-263.81485000000004	888.11633	403.41116	113.91885999999994	1069.34387	423.96948000000003	42.94626999999997	1110.20178	232.39610000000005	-76.88991000000006	1070.01978	433.31467000000004	-38.17740000000003	1109.70215	235.79324000000005	186.09054999999998	563.95551	245.36180000000004	78.25034999999997	521.24799	261.76709000000005	195.06304999999998	107.66263999999998	232.81198000000003	137.03547999999998	27.10125999999999	158.45343000000003	108.38030999999997	112.23467999999998	250.35782	229.71955999999994	44.56276999999998	391.5928	148.98989999999995	47.07412999999997	450.72693	-170.96487000000002	558.8111	282.44693000000007	-81.56491000000003	509.94971	277.00937000000005	-185.21136000000004	98.50226999999998	236.08149999999998	-121.58025000000002	30.39300999999999	159.93265999999997	-93.89880000000002	119.14255999999999	251.77097	-220.62169000000006	41.32679999999998	391.65192	-137.22922000000005	43.62233999999997	452.47391	
79	0.78	89.21119999999995	1794.99451	410.64960000000013	96.99764999999996	1744.15833	271.0599400000001	-47.20563000000005	1796.51184	406.2305000000001	-28.986110000000032	1735.90344	255.8551900000001	15.270419999999973	1614.45715	223.78760000000008	14.02876999999998	1386.42627	155.2469800000001	16.63752999999996	1538.70728	351.0137000000001	15.138519999999952	1363.90247	397.9993600000001	217.60274999999996	1578.7229	275.3533600000001	276.72713999999996	1202.76062	259.9962200000001	215.92365999999998	1208.52881	231.40036000000012	291.67458999999997	965.4895	356.5047600000001	217.44607999999994	967.06677	382.66113000000007	271.4476599999999	894.66809	414.2268400000001	-175.23775000000003	1574.99072	280.83701000000013	-244.54648000000003	1200.17676	257.65689	-191.40936000000002	1202.69214	225.63991000000004	-269.39941000000005	958.45581	353.94086	-205.96526000000006	959.77435	389.3143600000001	-263.86026000000004	888.13	403.33185	113.88183999999994	1069.33179	424.0149200000001	42.93968999999997	1110.22021	232.44174000000007	-76.93786000000006	1070.04565	433.30417000000006	-38.17938000000003	1109.70239	235.80664000000004	186.07380999999998	563.98602	245.39229000000006	78.22162999999998	521.25122	261.7851600000001	195.05680999999998	107.68451999999999	232.82611000000003	137.03191999999999	27.13406999999999	158.44997000000004	108.36851999999998	112.24459999999999	250.36499	229.70412999999994	44.57895999999998	391.59296	148.98647999999994	47.07099999999997	450.7298	-170.99039000000002	558.80969	282.43552000000005	-81.58960000000003	509.93655	277.00720000000007	-185.20541000000003	98.51427999999999	236.05811999999997	-121.57717000000001	30.406099999999988	159.94993999999997	-93.91335000000002	119.15111999999999	251.78018	-220.62434000000005	41.33269999999998	391.64984	-137.21465000000006	43.63057999999997	452.47583	
80	0.79	89.17228999999995	1794.93323	410.7331200000001	97.09810999999998	1744.19006	271.15991000000014	-47.23379000000005	1796.51624	406.1989700000001	-28.90627000000003	1735.96191	255.8423900000001	15.289449999999974	1614.45496	223.8089400000001	14.05166999999998	1386.42236	155.2836900000001	16.589239999999958	1538.74304	351.03552000000013	15.088699999999951	1363.92517	398.0123300000001	217.58916999999997	1578.73413	275.45062000000013	275.71468999999996	1202.82288	260.1107800000001	215.90355999999997	1208.55017	231.4814600000001	290.75310999999994	965.49908	356.3569000000001	217.37391999999994	967.06024	382.70328000000006	271.37560999999994	894.66272	414.2720900000001	-175.24950000000004	1575.0116	280.79306000000014	-244.53722000000002	1200.17957	257.62958	-191.39227000000002	1202.72327	225.62910000000005	-269.4418600000001	958.48041	353.87933	-206.49348000000006	960.33331	390.8806200000001	-263.93546000000003	888.1463	403.276	113.82265999999994	1069.33923	424.04895000000005	42.93863999999997	1110.2168	232.45593000000005	-76.98013000000006	1070.04163	433.3106700000001	-38.19345000000003	1109.74475	235.82248000000007	186.05752999999999	564.00378	245.44891000000007	78.21675999999997	521.24707	261.81302000000005	195.05869999999996	107.67379999999999	232.82712000000004	137.06081999999998	27.107209999999988	158.46889000000002	108.37964999999997	112.25184999999999	250.35248	229.71555999999995	44.57342999999998	391.59613	148.97773999999995	47.07794999999997	450.74539	-170.99313000000004	558.81067	282.44086000000004	-81.59538000000003	509.95514	277.03717000000006	-185.20273000000003	98.51796999999999	236.04990999999998	-121.58514000000001	30.38551999999999	159.93320999999997	-93.91563000000002	119.14305999999999	251.78502	-220.62511000000006	41.328519999999976	391.64801	-137.21185000000006	43.618339999999975	452.47617	
81	0.8	89.14347999999994	1794.84241	410.8050800000001	97.14654999999998	1744.17834	271.2471900000001	-47.26997000000005	1796.52014	406.1817600000001	-28.843720000000033	1736.01892	255.8446200000001	15.290879999999973	1614.47485	223.84084000000007	14.046909999999981	1386.43628	155.29063000000008	16.552029999999956	1538.73535	351.04306000000014	15.011269999999952	1363.95178	398.03622000000007	217.58108999999996	1578.73364	275.5433700000001	276.65835999999996	1202.80786	260.1653100000001	215.88093999999998	1208.55127	231.52562000000012	290.68618999999995	965.47858	356.3848600000001	217.31347999999994	967.04083	382.71652000000006	271.30245999999994	894.64868	414.3418600000001	-175.26794000000004	1575.02869	280.7493300000001	-244.53384000000003	1200.19885	257.57758	-191.35474000000002	1202.7262	225.62791000000007	-269.48276000000004	958.48596	353.83533	-206.51689000000005	960.32367	390.81104000000005	-264.01813000000004	888.16113	403.25574	113.77400999999995	1069.35571	424.07657000000006	42.94149999999997	1110.22827	232.52344000000005	-77.03693000000005	1070.05286	433.2953800000001	-38.224470000000025	1109.73181	235.82521000000006	186.05399999999997	563.99799	245.50937000000005	78.20759999999997	521.26697	261.85898000000003	195.05510999999998	107.68860999999998	232.81743000000003	137.03524999999996	27.12523999999999	158.46626000000003	108.37385999999996	112.25799999999998	250.37082	229.71030999999994	44.58225999999998	391.59979	148.98382999999995	47.074419999999975	450.73709	-171.01492000000002	558.80798	282.44025000000005	-81.61803000000003	509.92493	277.0371400000001	-185.21118000000004	98.50535999999998	236.06061999999997	-121.57928000000001	30.38710999999999	159.94524999999996	-93.91573000000002	119.14945999999999	251.78336	-220.63483000000005	41.323639999999976	391.6438	-137.21317000000005	43.61361999999997	452.47888	
